# xmcd CD database file
#
# Track frame offsets:
#	150
#	15881
#	34404
#	50383
#	74000
#	89349
#	108349
#	125659
#	141658
#	158098
#	176377
#	192772
#
# Disc length: 2852 seconds
#
# Revision: 0
# Processed by: cddbd v1.5.2PL0 Copyright (c) Steve Scherf et al.
# Submitted via: CDex 1.51
#
DISCID=a40b220c
DTITLE=tempesta - The Other Side
DYEAR=2009
DGENRE=Country
TTITLE0=The Other Side
TTITLE1=Talk Of The Town
TTITLE2=The Way It Is
TTITLE3=Lose You Once More
TTITLE4=Nashville
TTITLE5=Jack
TTITLE6=No Matter What They Say
TTITLE7=Get Over This
TTITLE8=Hicktown
TTITLE9=I'm Sorry
TTITLE10=Hurts Me
TTITLE11=Up To You
EXTD=YEAR: 2009
EXTT0=
EXTT1=
EXTT2=
EXTT3=
EXTT4=
EXTT5=
EXTT6=
EXTT7=
EXTT8=
EXTT9=
EXTT10=
EXTT11=
PLAYORDER=
